<svg width="209" height="210" viewBox="0 0 209 210" fill="none" xmlns="http://www.w3.org/2000/svg">
<circle cx="104.5" cy="105.092" r="96.8682" stroke="#231F20" stroke-opacity="0.05" stroke-width="15"/>
<path d="M104.501 8.22388C117.222 8.22388 129.818 10.7294 141.571 15.5975C153.323 20.4656 164.002 27.6009 172.997 36.5959C181.992 45.591 189.128 56.2696 193.996 68.0222C198.864 79.7748 201.369 92.3712 201.369 105.092C201.369 117.813 198.864 130.409 193.996 142.162C189.127 153.915 181.992 164.593 172.997 173.588C164.002 182.583 153.323 189.719 141.571 194.587C129.818 199.455 117.222 201.96 104.501 201.96C91.7801 201.96 79.1837 199.455 67.4311 194.587C55.6785 189.719 44.9999 182.583 36.0048 173.588C27.0098 164.593 19.8745 153.915 15.0064 142.162C10.1384 130.409 7.63281 117.813 7.63281 105.092C7.63282 92.3711 10.1384 79.7748 15.0065 68.0222C19.8746 56.2696 27.0098 45.5909 36.0049 36.5959C44.9999 27.6008 55.6786 20.4656 67.4312 15.5975C79.1838 10.7294 91.7802 8.22387 104.501 8.22388L104.501 8.22388Z" stroke="#F67952" stroke-width="15" stroke-miterlimit="2.61313" stroke-linecap="round"/>
<g clip-path="url(#clip0_139_72)">
<path d="M104.5 65.092C82.4431 65.092 64.5 83.0352 64.5 105.092C64.5 127.149 82.4431 145.092 104.5 145.092C126.557 145.092 144.5 127.149 144.5 105.092C144.5 83.0352 126.557 65.092 104.5 65.092Z" fill="#F67952" fill-opacity="0.1"/>
<path d="M124.773 96.6155L103.106 118.282C102.456 118.932 101.603 119.259 100.75 119.259C99.8964 119.259 99.0432 118.932 98.3931 118.282L87.56 107.449C86.2563 106.146 86.2563 104.039 87.56 102.735C88.8631 101.432 90.9694 101.432 92.2731 102.735L100.75 111.212L120.06 91.9023C121.363 90.5986 123.469 90.5986 124.773 91.9023C126.076 93.2054 126.076 95.3118 124.773 96.6155V96.6155Z" fill="#F67952"/>
</g>
<defs>
<clipPath id="clip0_139_72">
<rect width="80" height="80" fill="white" transform="translate(64.5 65.092)"/>
</clipPath>
</defs>
</svg>
