<svg xmlns="http://www.w3.org/2000/svg" width="431.25" viewBox="0 0 431.25 113.25" height="113.25" version="1.0"><defs><clipPath id="a"><path d="M 1.046875 0 L 429.457031 0 L 429.457031 112.503906 L 1.046875 112.503906 Z M 1.046875 0"/></clipPath><clipPath id="b"><path d="M 12.820312 18.5625 L 133.523438 18.5625 L 133.523438 87.855469 L 12.820312 87.855469 Z M 12.820312 18.5625"/></clipPath><clipPath id="c"><path d="M 67 35 L 133.523438 35 L 133.523438 78 L 67 78 Z M 67 35"/></clipPath><clipPath id="d"><path d="M 12.820312 19 L 50 19 L 50 87.855469 L 12.820312 87.855469 Z M 12.820312 19"/></clipPath></defs><g clip-path="url(#a)" fill="#FFF"><path d="M 1.046875 0 L 430.203125 0 L 430.203125 119.957031 L 1.046875 119.957031 Z M 1.046875 0"/><path d="M 1.046875 0 L 429.457031 0 L 429.457031 112.503906 L 1.046875 112.503906 Z M 1.046875 0"/><path d="M 1.046875 0 L 429.457031 0 L 429.457031 112.503906 L 1.046875 112.503906 Z M 1.046875 0"/></g><g clip-path="url(#b)"><path fill="#FFF" d="M 177.304688 -13.65625 L 177.304688 120.402344 C 177.304688 120.550781 177.304688 120.691406 177.304688 120.824219 C 177.292969 121.929688 177.230469 123.03125 177.113281 124.128906 C 177 125.226562 176.835938 126.316406 176.617188 127.398438 C 176.402344 128.484375 176.136719 129.554688 175.824219 130.613281 C 175.507812 131.671875 175.144531 132.710938 174.734375 133.738281 C 174.324219 134.761719 173.863281 135.765625 173.359375 136.75 C 172.855469 137.730469 172.308594 138.6875 171.714844 139.621094 C 171.121094 140.550781 170.488281 141.453125 169.8125 142.328125 C 169.136719 143.199219 168.421875 144.039062 167.667969 144.847656 C 166.914062 145.652344 166.121094 146.421875 165.296875 147.15625 C 164.472656 147.890625 163.613281 148.582031 162.722656 149.238281 C 161.835938 149.890625 160.917969 150.503906 159.96875 151.074219 C 159.023438 151.640625 158.054688 152.167969 157.058594 152.644531 C 156.0625 153.125 155.050781 153.558594 154.015625 153.941406 C 152.980469 154.328125 151.929688 154.664062 150.863281 154.953125 C 149.796875 155.238281 148.71875 155.476562 147.632812 155.667969 C 146.542969 155.855469 145.449219 155.992188 144.347656 156.078125 C 143.410156 156.152344 142.472656 156.191406 141.523438 156.191406 L 7.457031 156.191406 C 7.113281 156.191406 6.773438 156.191406 6.4375 156.191406 C 3.140625 156.105469 -0.0820312 155.570312 -3.230469 154.59375 C -4.019531 154.347656 -4.785156 154.078125 -5.542969 153.78125 C -7.324219 153.085938 -9.035156 152.253906 -10.675781 151.273438 C -14.855469 148.835938 -18.382812 145.671875 -21.261719 141.777344 C -21.601562 141.332031 -21.929688 140.871094 -22.242188 140.40625 C -24.359375 137.261719 -25.9375 133.867188 -26.972656 130.21875 C -27.597656 128.027344 -28.003906 125.796875 -28.191406 123.523438 C -28.28125 122.5 -28.332031 121.457031 -28.332031 120.40625 L -28.332031 -13.65625 C -28.332031 -14.402344 -28.332031 -15.144531 -28.265625 -15.835938 C -28.199219 -16.960938 -28.078125 -18.078125 -27.90625 -19.191406 C -27.730469 -20.304688 -27.507812 -21.40625 -27.230469 -22.5 C -26.953125 -23.589844 -26.625 -24.664062 -26.246094 -25.726562 C -25.863281 -26.785156 -25.4375 -27.828125 -24.960938 -28.847656 C -24.480469 -29.867188 -23.957031 -30.863281 -23.386719 -31.832031 C -22.8125 -32.804688 -22.199219 -33.746094 -21.539062 -34.65625 C -20.875 -35.570312 -20.175781 -36.449219 -19.429688 -37.292969 C -18.6875 -38.140625 -17.90625 -38.949219 -17.085938 -39.722656 C -16.265625 -40.492188 -15.410156 -41.226562 -14.519531 -41.917969 C -13.632812 -42.609375 -12.710938 -43.257812 -11.761719 -43.859375 C -10.8125 -44.464844 -9.835938 -45.023438 -8.832031 -45.535156 C -7.828125 -46.046875 -6.800781 -46.511719 -5.753906 -46.925781 C -4.707031 -47.34375 -3.644531 -47.707031 -2.5625 -48.023438 C -1.480469 -48.335938 -0.386719 -48.601562 0.71875 -48.8125 C 1.828125 -49.023438 2.941406 -49.183594 4.0625 -49.289062 C 5.183594 -49.394531 6.308594 -49.445312 7.433594 -49.445312 L 141.515625 -49.445312 C 145.574219 -49.449219 149.515625 -48.777344 153.347656 -47.4375 C 153.847656 -47.261719 154.335938 -47.082031 154.835938 -46.886719 C 156.128906 -46.363281 157.394531 -45.769531 158.621094 -45.101562 C 161.71875 -43.410156 164.511719 -41.3125 166.996094 -38.804688 C 168.285156 -37.492188 169.464844 -36.09375 170.542969 -34.609375 C 170.960938 -34.035156 171.355469 -33.457031 171.71875 -32.855469 C 173.351562 -30.3125 174.632812 -27.605469 175.558594 -24.730469 C 176.253906 -22.632812 176.75 -20.484375 177.042969 -18.289062 C 177.230469 -16.75 177.316406 -15.207031 177.304688 -13.65625 Z M 177.304688 -13.65625"/></g><path fill="#39AB00" d="M 110.765625 45.355469 L 97.050781 71.183594 L 78.703125 71.183594 C 75.972656 66.863281 70.023438 57.417969 67.332031 53.164062 C 70.148438 52.691406 72.652344 51.535156 74.835938 49.691406 C 75.902344 48.746094 76.796875 47.65625 77.511719 46.425781 C 77.714844 46.074219 77.898438 45.679688 78.085938 45.339844 L 79.03125 45.339844 Z M 110.765625 45.355469"/><path fill="#3A3A3A" d="M 72.210938 77.929688 C 72.199219 78.226562 72.25 78.511719 72.355469 78.789062 C 72.460938 79.066406 72.613281 79.3125 72.816406 79.527344 C 73.019531 79.742188 73.257812 79.910156 73.527344 80.035156 C 73.796875 80.15625 74.078125 80.21875 74.375 80.226562 C 74.671875 80.234375 74.957031 80.1875 75.234375 80.082031 C 75.511719 79.976562 75.757812 79.824219 75.972656 79.621094 C 76.1875 79.414062 76.355469 79.179688 76.476562 78.910156 C 76.597656 78.640625 76.664062 78.355469 76.671875 78.058594 C 76.679688 77.761719 76.628906 77.476562 76.523438 77.199219 C 76.417969 76.925781 76.265625 76.679688 76.0625 76.464844 C 75.855469 76.25 75.621094 76.082031 75.351562 75.960938 C 75.078125 75.839844 74.796875 75.773438 74.5 75.765625 C 74.207031 75.757812 73.917969 75.808594 73.644531 75.914062 C 73.367188 76.019531 73.121094 76.171875 72.90625 76.375 C 72.691406 76.578125 72.523438 76.8125 72.40625 77.085938 C 72.285156 77.355469 72.21875 77.636719 72.210938 77.929688 Z M 73.378906 77.929688 C 73.382812 77.789062 73.414062 77.65625 73.46875 77.527344 C 73.527344 77.398438 73.609375 77.285156 73.710938 77.1875 C 73.8125 77.089844 73.929688 77.019531 74.0625 76.96875 C 74.191406 76.917969 74.328125 76.894531 74.46875 76.898438 C 74.613281 76.902344 74.746094 76.933594 74.875 76.992188 C 75.003906 77.046875 75.117188 77.128906 75.214844 77.230469 C 75.308594 77.332031 75.382812 77.449219 75.433594 77.582031 C 75.484375 77.714844 75.507812 77.851562 75.503906 77.992188 C 75.5 78.132812 75.46875 78.265625 75.410156 78.394531 C 75.355469 78.523438 75.273438 78.636719 75.171875 78.734375 C 75.070312 78.832031 74.953125 78.90625 74.820312 78.953125 C 74.6875 79.003906 74.550781 79.027344 74.410156 79.023438 C 74.125 79.015625 73.882812 78.910156 73.679688 78.707031 C 73.480469 78.5 73.378906 78.253906 73.378906 77.96875 Z M 73.378906 77.929688"/><path fill="#3A3A3A" d="M 90.128906 78.273438 C 90.121094 78.570312 90.167969 78.855469 90.273438 79.128906 C 90.378906 79.40625 90.535156 79.652344 90.738281 79.867188 C 90.941406 80.082031 91.179688 80.25 91.449219 80.371094 C 91.71875 80.488281 92 80.554688 92.296875 80.5625 C 92.59375 80.570312 92.878906 80.523438 93.152344 80.417969 C 93.429688 80.3125 93.675781 80.15625 93.890625 79.953125 C 94.105469 79.75 94.273438 79.515625 94.394531 79.246094 C 94.515625 78.976562 94.578125 78.691406 94.589844 78.398438 C 94.597656 78.101562 94.546875 77.816406 94.445312 77.539062 C 94.339844 77.261719 94.183594 77.015625 93.980469 76.800781 C 93.777344 76.585938 93.542969 76.417969 93.273438 76.296875 C 93.003906 76.175781 92.722656 76.109375 92.425781 76.101562 C 92.128906 76.09375 91.84375 76.140625 91.566406 76.246094 C 91.289062 76.351562 91.042969 76.507812 90.824219 76.710938 C 90.609375 76.914062 90.441406 77.152344 90.320312 77.421875 C 90.199219 77.691406 90.136719 77.976562 90.128906 78.273438 Z M 91.296875 78.273438 C 91.296875 78.132812 91.328125 77.996094 91.386719 77.863281 C 91.441406 77.734375 91.523438 77.621094 91.625 77.523438 C 91.726562 77.421875 91.847656 77.347656 91.980469 77.296875 C 92.113281 77.246094 92.25 77.222656 92.390625 77.226562 C 92.53125 77.230469 92.667969 77.257812 92.800781 77.316406 C 92.929688 77.375 93.042969 77.453125 93.140625 77.558594 C 93.238281 77.660156 93.3125 77.777344 93.367188 77.910156 C 93.417969 78.042969 93.441406 78.179688 93.4375 78.324219 C 93.433594 78.464844 93.402344 78.601562 93.34375 78.730469 C 93.285156 78.863281 93.207031 78.976562 93.101562 79.074219 C 93 79.171875 92.882812 79.246094 92.75 79.296875 C 92.617188 79.347656 92.480469 79.371094 92.335938 79.367188 C 92.199219 79.363281 92.0625 79.335938 91.9375 79.28125 C 91.808594 79.222656 91.695312 79.148438 91.597656 79.046875 C 91.5 78.949219 91.425781 78.832031 91.375 78.707031 C 91.320312 78.578125 91.296875 78.441406 91.296875 78.304688 Z M 91.296875 78.273438"/><g clip-path="url(#c)"><path fill="#3A3A3A" d="M 67.984375 75.148438 C 67.980469 75.359375 68.015625 75.5625 68.089844 75.757812 C 68.167969 75.953125 68.277344 76.125 68.421875 76.277344 C 68.566406 76.429688 68.730469 76.550781 68.921875 76.632812 C 69.113281 76.71875 69.316406 76.765625 69.523438 76.769531 L 71.53125 76.832031 C 71.640625 76.519531 71.792969 76.234375 71.992188 75.972656 C 72.191406 75.710938 72.425781 75.484375 72.699219 75.300781 C 72.96875 75.113281 73.261719 74.972656 73.578125 74.878906 C 73.890625 74.785156 74.214844 74.742188 74.542969 74.75 C 74.871094 74.761719 75.191406 74.820312 75.5 74.929688 C 75.808594 75.042969 76.09375 75.199219 76.351562 75.398438 C 76.613281 75.601562 76.835938 75.839844 77.019531 76.113281 C 77.203125 76.382812 77.339844 76.679688 77.429688 76.992188 L 89.414062 77.320312 C 89.519531 77.011719 89.671875 76.722656 89.871094 76.460938 C 90.066406 76.199219 90.300781 75.972656 90.570312 75.785156 C 90.84375 75.597656 91.136719 75.457031 91.449219 75.363281 C 91.765625 75.265625 92.085938 75.226562 92.417969 75.234375 C 92.746094 75.242188 93.0625 75.300781 93.375 75.414062 C 93.683594 75.523438 93.96875 75.679688 94.226562 75.882812 C 94.488281 76.082031 94.710938 76.320312 94.894531 76.59375 C 95.078125 76.867188 95.214844 77.160156 95.304688 77.476562 L 99.714844 77.605469 L 108.640625 61.003906 C 109.75 58.933594 110.871094 56.851562 111.941406 54.777344 C 113.773438 51.3125 115.660156 47.726562 117.59375 44.253906 C 117.855469 43.800781 118.109375 43.292969 118.339844 42.816406 C 119.757812 40.019531 120.835938 38.199219 122.890625 38.25 L 131.636719 38.496094 C 131.847656 38.5 132.050781 38.464844 132.246094 38.390625 C 132.441406 38.316406 132.613281 38.203125 132.765625 38.058594 C 132.917969 37.914062 133.039062 37.746094 133.121094 37.554688 C 133.207031 37.363281 133.253906 37.164062 133.257812 36.953125 C 133.265625 36.742188 133.230469 36.539062 133.152344 36.34375 C 133.078125 36.148438 132.96875 35.972656 132.824219 35.820312 C 132.679688 35.667969 132.511719 35.550781 132.320312 35.464844 C 132.128906 35.378906 131.929688 35.332031 131.71875 35.328125 L 122.972656 35.089844 C 118.769531 34.976562 116.886719 38.675781 115.535156 41.382812 C 115.304688 41.851562 115.074219 42.296875 114.84375 42.714844 C 112.886719 46.214844 110.988281 49.824219 109.152344 53.296875 C 108.058594 55.371094 106.964844 57.449219 105.851562 59.507812 L 98.285156 73.863281 L 69.613281 73.609375 C 69.40625 73.605469 69.203125 73.640625 69.007812 73.71875 C 68.8125 73.792969 68.636719 73.902344 68.484375 74.046875 C 68.332031 74.191406 68.214844 74.359375 68.125 74.550781 C 68.039062 74.738281 67.992188 74.941406 67.984375 75.148438 Z M 67.984375 75.148438"/></g><path fill="#3A3A3A" d="M 63.457031 51.230469 L 76.046875 71.183594 L 63.457031 71.183594 L 46.179688 44.742188 L 48.582031 44.742188 C 51.214844 44.742188 53.855469 44.824219 56.488281 44.742188 C 57.886719 44.742188 59.230469 44.472656 60.519531 43.929688 C 61.8125 43.386719 62.945312 42.613281 63.925781 41.613281 C 64.6875 40.816406 65.230469 39.894531 65.554688 38.839844 C 66.980469 33.117188 61.089844 30.746094 56.441406 30.277344 C 52.304688 29.859375 47.957031 30.21875 43.796875 30.21875 L 35.972656 30.21875 L 33.859375 29.980469 L 38.800781 21.359375 L 49.957031 19.632812 C 51.570312 19.539062 53.191406 19.5 54.8125 19.546875 C 58.644531 19.574219 62.363281 20.230469 65.96875 21.515625 C 68.484375 22.4375 70.714844 23.816406 72.664062 25.652344 C 74.078125 27.011719 75.210938 28.578125 76.054688 30.351562 C 77.238281 32.992188 77.703125 35.753906 77.453125 38.636719 C 77.339844 41 76.710938 43.21875 75.5625 45.285156 C 74.96875 46.3125 74.226562 47.214844 73.332031 47.996094 C 71.433594 49.585938 69.261719 50.574219 66.816406 50.96875 C 66.011719 51.113281 65.203125 51.199219 64.386719 51.222656 C 64.3125 51.238281 63.523438 51.320312 63.457031 51.230469 Z M 63.457031 51.230469"/><g clip-path="url(#d)"><path fill="#39AB00" d="M 17.585938 89.78125 C 17.585938 89.78125 27.425781 69.09375 46.765625 57.550781 C 46.765625 57.550781 39.140625 56.742188 34.070312 56.605469 C 34.070312 56.605469 37.789062 49.082031 46.476562 37.550781 L 32.84375 37.550781 C 32.84375 37.550781 38.957031 22.601562 49.949219 19.621094 L 30.984375 19.621094 L 12.804688 48.144531 L 28.425781 46.65625 L 18.628906 61.628906 L 29.628906 61.203125 C 29.628906 61.203125 18.109375 89.019531 17.585938 89.78125 Z M 17.585938 89.78125"/></g><g fill="#39AB00"><g><g><path d="M 37.058594 -7.632812 C 35.808594 -7.632812 34.488281 -8.070312 34.488281 -10.492188 L 34.488281 -29.351562 L 25.167969 -29.351562 L 25.167969 -26.785156 C 22.96875 -28.765625 20.179688 -29.941406 16.804688 -29.941406 C 8.660156 -29.941406 2.273438 -23.1875 2.273438 -14.675781 C 2.273438 -6.164062 8.660156 0.585938 16.804688 0.585938 C 21.058594 0.585938 24.507812 -1.320312 26.859375 -4.402344 C 28.691406 -1.394531 31.921875 0.585938 35.882812 0.585938 C 36.835938 0.585938 37.71875 0.292969 38.378906 0 L 38.378906 -7.632812 Z M 18.640625 -7.703125 C 14.75 -7.703125 11.667969 -10.785156 11.667969 -14.675781 C 11.667969 -18.566406 14.75 -21.648438 18.640625 -21.648438 C 22.453125 -21.648438 25.609375 -18.566406 25.609375 -14.675781 C 25.609375 -10.785156 22.453125 -7.703125 18.640625 -7.703125 Z M 18.640625 -7.703125" transform="translate(117.643 75.864)"/></g></g></g><g fill="#39AB00"><g><g><path d="M 22.085938 -29.941406 C 18.710938 -29.941406 15.921875 -28.765625 13.722656 -26.785156 L 13.722656 -29.277344 L 4.328125 -29.351562 L 4.328125 17.613281 L 13.722656 17.683594 L 13.722656 -2.566406 C 15.921875 -0.585938 18.710938 0.585938 22.085938 0.585938 C 30.160156 0.585938 36.542969 -6.164062 36.542969 -14.675781 C 36.542969 -23.1875 30.160156 -29.941406 22.085938 -29.941406 Z M 20.253906 -7.703125 C 16.363281 -7.703125 13.28125 -10.785156 13.28125 -14.675781 C 13.28125 -18.566406 16.363281 -21.648438 20.253906 -21.648438 C 24.140625 -21.648438 27.222656 -18.566406 27.222656 -14.675781 C 27.222656 -10.785156 24.140625 -7.703125 20.253906 -7.703125 Z M 20.253906 -7.703125" transform="translate(157.119 75.864)"/></g></g></g><g fill="#39AB00"><g><g><path d="M 9.171875 -34.269531 C 11.960938 -34.269531 14.308594 -36.617188 14.308594 -39.40625 C 14.308594 -42.269531 11.960938 -44.542969 9.171875 -44.542969 C 6.382812 -44.542969 4.035156 -42.269531 4.035156 -39.40625 C 4.035156 -36.617188 6.382812 -34.269531 9.171875 -34.269531 Z M 4.476562 0 L 13.796875 0 L 13.796875 -29.351562 L 4.476562 -29.351562 Z M 4.476562 0" transform="translate(195.935 75.864)"/></g></g></g><g fill="#39AB00"><g><g><path d="M 25.167969 -50.265625 L 25.167969 -26.785156 C 22.96875 -28.765625 20.179688 -29.941406 16.804688 -29.941406 C 8.660156 -29.941406 2.273438 -23.1875 2.273438 -14.675781 C 2.273438 -6.164062 8.660156 0.585938 16.804688 0.585938 C 20.179688 0.585938 22.96875 -0.585938 25.167969 -2.566406 L 25.167969 0.0742188 L 34.488281 0 L 34.488281 -50.265625 Z M 18.640625 -7.703125 C 14.75 -7.703125 11.667969 -10.785156 11.667969 -14.675781 C 11.667969 -18.566406 14.75 -21.648438 18.640625 -21.648438 C 22.453125 -21.648438 25.609375 -18.566406 25.609375 -14.675781 C 25.609375 -10.785156 22.453125 -7.703125 18.640625 -7.703125 Z M 18.640625 -7.703125" transform="translate(214.279 75.864)"/></g></g></g><g fill="#39AB00"><g><g><path d="M 36.617188 0 L 22.675781 -16.070312 L 35.515625 -29.351562 L 24.289062 -29.351562 L 14.089844 -18.785156 L 14.089844 -50.265625 L 4.769531 -50.265625 L 4.769531 0 L 14.089844 0 L 14.089844 -13.503906 L 24.4375 0 Z M 36.617188 0" transform="translate(253.095 75.864)"/></g></g></g><g fill="#39AB00"><g><g><path d="M 37.058594 -7.632812 C 35.808594 -7.632812 34.488281 -8.070312 34.488281 -10.492188 L 34.488281 -29.351562 L 25.167969 -29.351562 L 25.167969 -26.785156 C 22.96875 -28.765625 20.179688 -29.941406 16.804688 -29.941406 C 8.660156 -29.941406 2.273438 -23.1875 2.273438 -14.675781 C 2.273438 -6.164062 8.660156 0.585938 16.804688 0.585938 C 21.058594 0.585938 24.507812 -1.320312 26.859375 -4.402344 C 28.691406 -1.394531 31.921875 0.585938 35.882812 0.585938 C 36.835938 0.585938 37.71875 0.292969 38.378906 0 L 38.378906 -7.632812 Z M 18.640625 -7.703125 C 14.75 -7.703125 11.667969 -10.785156 11.667969 -14.675781 C 11.667969 -18.566406 14.75 -21.648438 18.640625 -21.648438 C 22.453125 -21.648438 25.609375 -18.566406 25.609375 -14.675781 C 25.609375 -10.785156 22.453125 -7.703125 18.640625 -7.703125 Z M 18.640625 -7.703125" transform="translate(288.388 75.864)"/></g></g></g><g fill="#39AB00"><g><g><path d="M 21.941406 -29.941406 C 18.492188 -29.941406 15.628906 -28.179688 13.722656 -25.316406 L 13.722656 -29.351562 L 4.328125 -29.351562 L 4.328125 0 L 13.722656 0 L 13.722656 -14.015625 C 13.722656 -18.859375 17.023438 -21.648438 21.648438 -21.648438 C 22.75 -21.648438 23.703125 -21.5 24.363281 -21.355469 L 24.363281 -29.644531 C 23.703125 -29.867188 22.820312 -29.941406 21.941406 -29.941406 Z M 21.941406 -29.941406" transform="translate(327.865 75.864)"/></g></g></g><g fill="#39AB00"><g><g><path d="M 22.015625 -22.085938 L 22.015625 -29.351562 L 15.042969 -29.351562 L 15.042969 -40.652344 L 5.722656 -40.652344 L 5.722656 -29.351562 L 0.808594 -29.351562 L 0.808594 -22.085938 L 5.722656 -22.085938 L 5.722656 -10.492188 C 5.722656 -4.257812 11.007812 0.585938 17.246094 0.585938 C 19.226562 0.585938 21.207031 0.148438 21.941406 -0.367188 L 21.941406 -7.632812 L 18.417969 -7.632812 C 16.4375 -7.632812 15.042969 -9.171875 15.042969 -11.59375 L 15.042969 -22.085938 Z M 22.015625 -22.085938" transform="translate(352.079 75.864)"/></g></g></g></svg>