<svg width="28" height="23" viewBox="0 0 28 23" fill="none" xmlns="http://www.w3.org/2000/svg">
<path d="M27.0566 4.08676V18.6569C27.0566 20.7553 25.3495 22.4625 23.2513 22.4625H3.80575C1.70728 22.4625 0.000105493 20.7551 0.000105493 18.6569V4.08676C0.000105493 1.98829 1.70757 0.281113 3.80575 0.281113H23.2513C25.3495 0.281113 27.0566 1.98829 27.0566 4.08676ZM23.2513 21.352C24.7372 21.352 25.9461 20.1431 25.9461 18.6569V15.2709H23.9124C23.6059 15.2709 23.3571 15.0224 23.3571 14.7156C23.3571 14.409 23.6059 14.1603 23.9124 14.1603H25.9461V8.58331H19.1981C19.105 8.58331 19.015 8.59719 18.9303 8.62264C18.917 8.62756 18.9034 8.63218 18.8895 8.63594C18.5286 8.76348 18.2692 9.10822 18.2692 9.51223V13.2314C18.2692 13.6357 18.5286 13.9802 18.8895 14.1077C18.9034 14.1117 18.917 14.1161 18.9303 14.121C19.015 14.1467 19.105 14.1603 19.1981 14.1603H21.3194C21.626 14.1603 21.8747 14.409 21.8747 14.7156C21.8747 15.0224 21.626 15.2709 21.3194 15.2709H19.2927V15.5257C19.2927 17.6068 18.0638 19.5002 16.1623 20.349C16.079 20.3863 16.0249 20.4705 16.0249 20.5633V21.352H23.2513ZM1.11065 15.2709V18.6569C1.11065 20.1428 2.31953 21.352 3.80575 21.352H11.0318V20.5633C11.0318 20.4705 10.978 20.3863 10.8944 20.349C8.99292 19.4999 7.76409 17.6068 7.76409 15.5254V15.2709L1.11065 15.2709ZM3.80575 1.39166C2.31953 1.39166 1.11065 2.60053 1.11065 4.08676V7.47276H3.3436C3.65044 7.47276 3.89887 7.72119 3.89887 8.02804C3.89887 8.33459 3.65044 8.58331 3.3436 8.58331H1.11065V14.1603H7.85895C7.95179 14.1603 8.04173 14.1464 8.12646 14.121C8.13977 14.1161 8.15365 14.1115 8.16753 14.1074C8.52846 13.9799 8.78788 13.6354 8.78788 13.2314V9.51223C8.78788 9.10822 8.52846 8.76348 8.16753 8.63594C8.15365 8.63189 8.13977 8.62756 8.12646 8.62235C8.04173 8.5969 7.95179 8.58331 7.85895 8.58331H5.93661C5.63005 8.58331 5.38134 8.33459 5.38134 8.02804C5.38134 7.72119 5.63005 7.47276 5.93661 7.47276H7.76409V7.21797C7.76409 5.13686 8.99292 3.24344 10.8944 2.39462C10.978 2.35731 11.0318 2.27315 11.0318 2.18032V1.39166H3.80575ZM12.1424 1.39166V2.18032C12.1424 2.71072 11.8303 3.19282 11.3473 3.40857C9.84521 4.07924 8.87464 5.57442 8.87464 7.21797V7.74404C9.48602 8.09687 9.89842 8.75712 9.89842 9.51223V13.2314C9.89842 13.9862 9.48602 14.6468 8.87464 14.9993V15.5254C8.87464 17.1689 9.84521 18.6644 11.3473 19.3348C11.8303 19.5505 12.1424 20.0326 12.1424 20.5633V21.352H14.9144V20.5633C14.9144 20.0329 15.2264 19.5508 15.7094 19.3351C17.2115 18.6644 18.1821 17.1692 18.1821 15.5257V14.9996C17.5707 14.6468 17.1586 13.9865 17.1586 13.2314V9.51223C17.1586 8.75741 17.5707 8.09687 18.1821 7.74433V7.21826C18.1821 5.57442 17.2115 4.07924 15.7094 3.40886C15.2264 3.19311 14.9144 2.71101 14.9144 2.18032V1.39166H12.1424ZM16.0249 1.39166V2.18032C16.0249 2.27315 16.079 2.35731 16.1623 2.39462C18.0641 3.24344 19.2927 5.13686 19.2927 7.21797V7.47276H25.9461V4.08676C25.9461 2.60053 24.7372 1.39166 23.2513 1.39166H16.0249Z" fill="white"/>
</svg>
