<svg width="45" height="46" viewBox="0 0 45 46" fill="none" xmlns="http://www.w3.org/2000/svg">
<circle cx="22.5" cy="23" r="22.5" fill="#F67952" fill-opacity="0.07"/>
<path fill-rule="evenodd" clip-rule="evenodd" d="M26.9303 18.5C26.9621 18.4291 26.977 18.3519 26.9739 18.2743H27C26.8882 15.6059 24.6849 13.5 22.0049 13.5C19.325 13.5 17.1217 15.6059 17.0099 18.2743C16.9967 18.349 16.9967 18.4253 17.0099 18.5H16.9317C15.6502 18.5 14.2803 19.346 13.8826 21.6201L13.1049 27.8147C12.4686 32.3629 14.8106 33.5 17.8685 33.5H26.1585C29.2075 33.5 31.4789 31.8535 30.9133 27.8147L30.1444 21.6201C29.676 19.4096 28.3503 18.5 27.0865 18.5H26.9303ZM25.4932 18.5C25.4654 18.4279 25.4506 18.3515 25.4497 18.2743C25.4497 16.3568 23.8899 14.8024 21.9657 14.8024C20.0416 14.8024 18.4818 16.3568 18.4818 18.2743C18.495 18.349 18.495 18.4253 18.4818 18.5H25.4932ZM19.097 23.6486C18.6089 23.6486 18.2132 23.2413 18.2132 22.7389C18.2132 22.2365 18.6089 21.8293 19.097 21.8293C19.5851 21.8293 19.9808 22.2365 19.9808 22.7389C19.9808 23.2413 19.5851 23.6486 19.097 23.6486ZM24.002 22.7389C24.002 23.2413 24.3977 23.6486 24.8858 23.6486C25.3739 23.6486 25.7696 23.2413 25.7696 22.7389C25.7696 22.2365 25.3739 21.8293 24.8858 21.8293C24.3977 21.8293 24.002 22.2365 24.002 22.7389Z" fill="#F67952"/>
</svg>
