<svg width="45" height="46" viewBox="0 0 45 46" fill="none" xmlns="http://www.w3.org/2000/svg">
<circle cx="22.5" cy="23" r="22.5" fill="#0EA2F6" fill-opacity="0.07"/>
<path fill-rule="evenodd" clip-rule="evenodd" d="M31.8794 21.6C31.7496 21.726 31.5735 21.798 31.3882 21.798C30.7023 21.798 30.1462 22.3383 30.1462 22.9955C30.1462 23.6573 30.6958 24.1948 31.3752 24.202C31.758 24.2056 32.0833 24.4649 32.0833 24.8368V27.1463C32.0833 29.0902 30.4614 30.6667 28.4594 30.6667H25.438C25.1256 30.6667 24.8726 30.4209 24.8726 30.1175V28.1727C24.8726 27.7945 24.5668 27.4974 24.1775 27.4974C23.7975 27.4974 23.4824 27.7945 23.4824 28.1727V30.1175C23.4824 30.4209 23.2294 30.6667 22.918 30.6667H16.5405C14.5478 30.6667 12.9166 29.0911 12.9166 27.1463V24.8368C12.9166 24.4649 13.2419 24.2056 13.6247 24.202C14.305 24.1948 14.8537 23.6573 14.8537 22.9955C14.8537 22.3563 14.3161 21.8701 13.6117 21.8701C13.4264 21.8701 13.2503 21.798 13.1205 21.672C12.9908 21.5459 12.9166 21.3749 12.9166 21.1948V18.8628C12.9166 16.9216 14.5515 15.3334 16.5498 15.3334H22.918C23.2294 15.3334 23.4824 15.5792 23.4824 15.8826V18.1876C23.4824 18.5567 23.7975 18.8628 24.1775 18.8628C24.5668 18.8628 24.8726 18.5567 24.8726 18.1876V15.8826C24.8726 15.5792 25.1256 15.3334 25.438 15.3334H28.4594C30.4614 15.3334 32.0833 16.909 32.0833 18.8538V21.1228C32.0833 21.3028 32.0091 21.4739 31.8794 21.6ZM24.1775 25.7507C24.5668 25.7507 24.8726 25.4445 24.8726 25.0754V21.4739C24.8726 21.1048 24.5668 20.7986 24.1775 20.7986C23.7975 20.7986 23.4824 21.1048 23.4824 21.4739V25.0754C23.4824 25.4445 23.7975 25.7507 24.1775 25.7507Z" fill="#297EFF"/>
</svg>
