<svg width="46" height="46" viewBox="0 0 46 46" fill="none" xmlns="http://www.w3.org/2000/svg">
<circle cx="23" cy="23" r="22.5" fill="#FFC107" fill-opacity="0.07"/>
<g clip-path="url(#clip0_147_75)">
<path d="M34.44 20.3227C34.2895 19.857 33.8764 19.5262 33.3877 19.4822L26.7493 18.8794L24.1242 12.7353C23.9307 12.285 23.4899 11.9935 23.0001 11.9935C22.5104 11.9935 22.0695 12.285 21.876 12.7363L19.251 18.8794L12.6115 19.4822C12.1237 19.5273 11.7116 19.857 11.5602 20.3227C11.4087 20.7884 11.5486 21.2993 11.9176 21.6213L16.9355 26.022L15.4559 32.5399C15.3476 33.0191 15.5336 33.5145 15.9312 33.8019C16.145 33.9563 16.395 34.035 16.6472 34.035C16.8646 34.035 17.0803 33.9763 17.2738 33.8605L23.0001 30.4381L28.7243 33.8605C29.1432 34.1125 29.6712 34.0895 30.0679 33.8019C30.4658 33.5136 30.6516 33.018 30.5433 32.5399L29.0637 26.022L34.0815 21.6222C34.4506 21.2993 34.5915 20.7893 34.44 20.3227Z" fill="#FFC107"/>
</g>
<defs>
<clipPath id="clip0_147_75">
<rect width="23" height="23" fill="white" transform="translate(11.5 11.5)"/>
</clipPath>
</defs>
</svg>
