<svg width="52" height="60" viewBox="0 0 52 60" fill="none" xmlns="http://www.w3.org/2000/svg">
<path d="M25.9997 42.6493C22.4437 42.6493 18.9654 41.4256 16.2052 39.2034L3.7935 29.2113C-1.23217 25.3097 -1.23146 17.3149 3.7935 13.4139L16.2052 3.42181C21.7105 -1.14072 30.289 -1.14049 35.7942 3.42181L48.2059 13.4139C51.3777 15.9674 52.719 20.1427 51.6234 24.0511C51.2735 25.2986 49.9712 26.029 48.7128 25.6818C47.4551 25.3349 46.7192 24.0423 47.069 22.7947C47.6604 20.6851 46.9375 18.4322 45.2269 17.0551L32.8152 7.06288C28.8661 3.8836 23.1333 3.8836 19.1842 7.06288L6.77251 17.0551C4.06284 19.1588 4.06319 23.4669 6.77251 25.5702L19.1842 35.5624C23.1265 38.7361 28.8465 38.7417 32.795 35.5785L34.8683 33.8293C35.8625 32.9903 37.3542 33.1096 38.2001 34.0961C39.0458 35.0825 38.9255 36.5622 37.9311 37.4012L35.8361 39.1688C35.8222 39.1806 35.8083 39.192 35.7942 39.2034C33.0341 41.4256 29.5557 42.6493 25.9997 42.6493ZM35.7942 56.5541L48.2059 46.562C53.2316 42.6604 53.2309 34.6656 48.2059 30.7646L35.7942 20.7725C30.2889 16.21 21.7104 16.2102 16.2052 20.7725L14.4554 22.1962C12.1096 24.2647 14.952 27.6986 17.453 25.822L19.1881 24.4105C23.1373 21.2347 28.8675 21.2356 32.8152 24.4137L45.2269 34.4058C47.9366 36.5095 47.9362 40.8176 45.2269 42.9209L32.8152 52.9131C28.8661 56.0923 23.1333 56.0923 19.1842 52.9131L6.77251 42.9209C5.20542 41.6592 4.45591 39.6489 4.81648 37.6746C5.04918 36.4003 4.1965 35.1803 2.91211 34.9494C1.62842 34.719 0.397792 35.5643 0.164975 36.8386C-0.502988 40.4964 0.887301 44.2222 3.7935 46.562L16.2052 56.5541C18.9653 58.7762 22.4437 60 25.9997 60C29.5557 60 33.0341 58.7763 35.7942 56.5541Z" fill="#F67952"/>
</svg>
